# xmcd
#
# Track frame offsets:
#	150
#	15305
#	28382
#	42552
#	58052
#	71345
#	82960
#	96915
#	114462
#	127307
#	139855
#	154982
#	172405
#	187715
#	203405
#	218022
#	233705
# Disc length: 3343 seconds
# Revision: 3
# Processed by: cddbd v1.5.1PL2 Copyright (c) Steve Scherf et al.
#
# Submitted via: libkcddb 0.21
#
DISCID=ef0d0d11
DTITLE=Various Artist - Kickin' Country
DYEAR=1993
DGENRE=Country
TTITLE0=MaryChapin Carpenter - Down At The Twist and Shout
TTITLE1=Vince Gill - Liza Jane
TTITLE2=Shenandoah - Rock My Baby
TTITLE3=Ricky Van Shelton - I Am A Simple Man
TTITLE4=Hal Ketchum - Small Town Saturday Night
TTITLE5=Steve Earle - Guitar Town
TTITLE6=Patty Loveless - I'm That Kind Of Girl
TTITLE7=Ricky Skaggs - Life's Too Long (To Live Like This)
TTITLE8=Kentucky Headhunters, The - Dumas Walker
TTITLE9=Aaron Tippin - There Ain't Nothin' Wrong With The Radio
TTITLE10=Sawyer Brown - Betty's Bein' Bad
TTITLE11=Tanya Tucker - Some Kind Of Trouble
TTITLE12=Charlie Daniels - Honky Tonk Life
TTITLE13=Doug Stone - A Jukebox With A Country Song
TTITLE14=Rosanne Cash - My Baby Thinks He's A Train
TTITLE15=Joe Diffie - Next Thing Smokin'
TTITLE16=Rodney Crowell - Livin'  All Night
EXTD=
EXTT0=
EXTT1=
EXTT2=
EXTT3=
EXTT4=
EXTT5=
EXTT6=
EXTT7=
EXTT8=
EXTT9=
EXTT10=
EXTT11=
EXTT12=
EXTT13=
EXTT14=
EXTT15=
EXTT16=
PLAYORDER=
